<?xml version="1.0" encoding="UTF-8" standalone="no"?>
<!-- Created with Inkscape (http://www.inkscape.org/) -->

<svg
   xmlns:dc="http://purl.org/dc/elements/1.1/"
   xmlns:cc="http://creativecommons.org/ns#"
   xmlns:rdf="http://www.w3.org/1999/02/22-rdf-syntax-ns#"
   xmlns:svg="http://www.w3.org/2000/svg"
   xmlns="http://www.w3.org/2000/svg"
   xmlns:sodipodi="http://sodipodi.sourceforge.net/DTD/sodipodi-0.dtd"
   xmlns:inkscape="http://www.inkscape.org/namespaces/inkscape"
   version="1.1"
   id="svg10"
   xml:space="preserve"
   width="666.66669"
   height="666.66669"
   viewBox="0 0 666.66669 666.66669"
   sodipodi:docname="log.svg"
   inkscape:version="0.92.4 (5da689c313, 2019-01-14)"><metadata
     id="metadata16"><rdf:RDF><cc:Work
         rdf:about=""><dc:format>image/svg+xml</dc:format><dc:type
           rdf:resource="http://purl.org/dc/dcmitype/StillImage" /><dc:title></dc:title></cc:Work></rdf:RDF></metadata><defs
     id="defs14"><linearGradient
       x1="0"
       y1="0"
       x2="1"
       y2="0"
       gradientUnits="userSpaceOnUse"
       gradientTransform="matrix(63.837772,-175.09789,-175.09789,-63.837772,219.69955,383.07928)"
       spreadMethod="pad"
       id="linearGradient52"><stop
         style="stop-opacity:1;stop-color:#3eb0ca"
         offset="0"
         id="stop42" /><stop
         style="stop-opacity:1;stop-color:#3eb0ca"
         offset="0.011236"
         id="stop44" /><stop
         style="stop-opacity:1;stop-color:#0099b9"
         offset="0.5"
         id="stop46" /><stop
         style="stop-opacity:1;stop-color:#007c84"
         offset="0.994382"
         id="stop48" /><stop
         style="stop-opacity:1;stop-color:#007c84"
         offset="1"
         id="stop50" /></linearGradient><linearGradient
       x1="0"
       y1="0"
       x2="1"
       y2="0"
       gradientUnits="userSpaceOnUse"
       gradientTransform="matrix(63.837772,-175.09789,-175.09789,-63.837772,219.69955,383.07928)"
       spreadMethod="pad"
       id="linearGradient78"><stop
         style="stop-opacity:1;stop-color:#3eb0ca"
         offset="0"
         id="stop68" /><stop
         style="stop-opacity:1;stop-color:#3eb0ca"
         offset="0.011236"
         id="stop70" /><stop
         style="stop-opacity:1;stop-color:#0099b9"
         offset="0.5"
         id="stop72" /><stop
         style="stop-opacity:1;stop-color:#007c84"
         offset="0.994382"
         id="stop74" /><stop
         style="stop-opacity:1;stop-color:#007c84"
         offset="1"
         id="stop76" /></linearGradient><clipPath
       clipPathUnits="userSpaceOnUse"
       id="clipPath88"><path
         d="M 0,500 H 500 V 0 H 0 Z"
         id="path86"
         inkscape:connector-curvature="0" /></clipPath><clipPath
       clipPathUnits="userSpaceOnUse"
       id="clipPath96"><path
         d="m 209,340 h 59.936 V 312.992 H 209 Z"
         id="path94"
         inkscape:connector-curvature="0" /></clipPath><linearGradient
       x1="0"
       y1="0"
       x2="1"
       y2="0"
       gradientUnits="userSpaceOnUse"
       gradientTransform="matrix(-126.05938,-146.62975,-146.62975,126.05938,333.41379,408.15213)"
       spreadMethod="pad"
       id="linearGradient124"><stop
         style="stop-opacity:1;stop-color:#ffe7a3"
         offset="0"
         id="stop118" /><stop
         style="stop-opacity:1;stop-color:#ffca05"
         offset="0.5"
         id="stop120" /><stop
         style="stop-opacity:1;stop-color:#faac18"
         offset="1"
         id="stop122" /></linearGradient><linearGradient
       x1="0"
       y1="0"
       x2="1"
       y2="0"
       gradientUnits="userSpaceOnUse"
       gradientTransform="matrix(63.837772,-175.09789,-175.09789,-63.837772,241.58821,391.05951)"
       spreadMethod="pad"
       id="linearGradient150"><stop
         style="stop-opacity:1;stop-color:#3eb0ca"
         offset="0"
         id="stop140" /><stop
         style="stop-opacity:1;stop-color:#3eb0ca"
         offset="0.011236"
         id="stop142" /><stop
         style="stop-opacity:1;stop-color:#0099b9"
         offset="0.5"
         id="stop144" /><stop
         style="stop-opacity:1;stop-color:#007c84"
         offset="0.994382"
         id="stop146" /><stop
         style="stop-opacity:1;stop-color:#007c84"
         offset="1"
         id="stop148" /></linearGradient><clipPath
       clipPathUnits="userSpaceOnUse"
       id="clipPath160"><path
         d="M 0,500 H 500 V 0 H 0 Z"
         id="path158"
         inkscape:connector-curvature="0" /></clipPath><clipPath
       clipPathUnits="userSpaceOnUse"
       id="clipPath168"><path
         d="M 254.838,337.194 H 305 V 217.999 h -50.162 z"
         id="path166"
         inkscape:connector-curvature="0" /></clipPath><linearGradient
       x1="0"
       y1="0"
       x2="1"
       y2="0"
       gradientUnits="userSpaceOnUse"
       gradientTransform="matrix(63.837772,-175.09789,-175.09789,-63.837772,186.30508,370.90421)"
       spreadMethod="pad"
       id="linearGradient204"><stop
         style="stop-opacity:1;stop-color:#3eb0ca"
         offset="0"
         id="stop194" /><stop
         style="stop-opacity:1;stop-color:#3eb0ca"
         offset="0.011236"
         id="stop196" /><stop
         style="stop-opacity:1;stop-color:#0099b9"
         offset="0.5"
         id="stop198" /><stop
         style="stop-opacity:1;stop-color:#007c84"
         offset="0.994382"
         id="stop200" /><stop
         style="stop-opacity:1;stop-color:#007c84"
         offset="1"
         id="stop202" /></linearGradient><linearGradient
       x1="0"
       y1="0"
       x2="1"
       y2="0"
       gradientUnits="userSpaceOnUse"
       gradientTransform="matrix(63.837772,-175.09789,-175.09789,-63.837772,282.35538,405.92255)"
       spreadMethod="pad"
       id="linearGradient230"><stop
         style="stop-opacity:1;stop-color:#3eb0ca"
         offset="0"
         id="stop220" /><stop
         style="stop-opacity:1;stop-color:#3eb0ca"
         offset="0.011236"
         id="stop222" /><stop
         style="stop-opacity:1;stop-color:#0099b9"
         offset="0.5"
         id="stop224" /><stop
         style="stop-opacity:1;stop-color:#007c84"
         offset="0.994382"
         id="stop226" /><stop
         style="stop-opacity:1;stop-color:#007c84"
         offset="1"
         id="stop228" /></linearGradient><linearGradient
       x1="0"
       y1="0"
       x2="1"
       y2="0"
       gradientUnits="userSpaceOnUse"
       gradientTransform="matrix(63.837772,-175.09789,-175.09789,-63.837772,262.69641,398.75522)"
       spreadMethod="pad"
       id="linearGradient256"><stop
         style="stop-opacity:1;stop-color:#3eb0ca"
         offset="0"
         id="stop246" /><stop
         style="stop-opacity:1;stop-color:#3eb0ca"
         offset="0.011236"
         id="stop248" /><stop
         style="stop-opacity:1;stop-color:#0099b9"
         offset="0.5"
         id="stop250" /><stop
         style="stop-opacity:1;stop-color:#007c84"
         offset="0.994382"
         id="stop252" /><stop
         style="stop-opacity:1;stop-color:#007c84"
         offset="1"
         id="stop254" /></linearGradient><clipPath
       clipPathUnits="userSpaceOnUse"
       id="clipPath266"><path
         d="M 0,500 H 500 V 0 H 0 Z"
         id="path264"
         inkscape:connector-curvature="0" /></clipPath><clipPath
       clipPathUnits="userSpaceOnUse"
       id="clipPath274"><path
         d="m 267.245,368.784 h 20.382 v -20.913 h -20.382 z"
         id="path272"
         inkscape:connector-curvature="0" /></clipPath><linearGradient
       x1="0"
       y1="0"
       x2="1"
       y2="0"
       gradientUnits="userSpaceOnUse"
       gradientTransform="matrix(57.295822,-157.15425,-157.15425,-57.295822,265.20688,396.11227)"
       spreadMethod="pad"
       id="linearGradient306"><stop
         style="stop-opacity:1;stop-color:#3eb0ca"
         offset="0"
         id="stop296" /><stop
         style="stop-opacity:1;stop-color:#3eb0ca"
         offset="0.011236"
         id="stop298" /><stop
         style="stop-opacity:1;stop-color:#0099b9"
         offset="0.5"
         id="stop300" /><stop
         style="stop-opacity:1;stop-color:#007c84"
         offset="0.994382"
         id="stop302" /><stop
         style="stop-opacity:1;stop-color:#007c84"
         offset="1"
         id="stop304" /></linearGradient><linearGradient
       x1="0"
       y1="0"
       x2="1"
       y2="0"
       gradientUnits="userSpaceOnUse"
       gradientTransform="matrix(-128.69661,-135.55341,-135.55341,128.69661,315.80414,406.50565)"
       spreadMethod="pad"
       id="linearGradient328"><stop
         style="stop-opacity:1;stop-color:#ffe7a3"
         offset="0"
         id="stop322" /><stop
         style="stop-opacity:1;stop-color:#ffca05"
         offset="0.5"
         id="stop324" /><stop
         style="stop-opacity:1;stop-color:#faac18"
         offset="1"
         id="stop326" /></linearGradient><clipPath
       clipPathUnits="userSpaceOnUse"
       id="clipPath338"><path
         d="M 0,500 H 500 V 0 H 0 Z"
         id="path336"
         inkscape:connector-curvature="0" /></clipPath><clipPath
       clipPathUnits="userSpaceOnUse"
       id="clipPath346"><path
         d="m 200.535,284.012 h 62.958 v -78.301 h -62.958 z"
         id="path344"
         inkscape:connector-curvature="0" /></clipPath><clipPath
       clipPathUnits="userSpaceOnUse"
       id="clipPath362"><path
         d="M 0,500 H 500 V 0 H 0 Z"
         id="path360"
         inkscape:connector-curvature="0" /></clipPath>
<style>
    @media (max-width:25em){
        [id="zh"]{
            display: none;
            }
        }
    @media (max-width:15em){
        [class="t"]{
            display: none;
            }
        }
</style>
</defs><sodipodi:namedview
     pagecolor="#ffffff"
     bordercolor="#666666"
     borderopacity="1"
     objecttolerance="10"
     gridtolerance="10"
     guidetolerance="10"
     inkscape:pageopacity="0"
     inkscape:pageshadow="2"
     inkscape:window-width="1920"
     inkscape:window-height="986"
     id="namedview12"
     showgrid="false"
     inkscape:zoom="1.1445"
     inkscape:cx="205.32984"
     inkscape:cy="333.33334"
     inkscape:window-x="-11"
     inkscape:window-y="-11"
     inkscape:window-maximized="1"
     inkscape:current-layer="g18" /><g
     id="g18"
     inkscape:groupmode="layer"
     inkscape:label="2546610"
     transform="matrix(1.3333333,0,0,-1.3333333,0,666.66667)"><path
       d="M 0,0 H 500 V 500 H 0 Z"
       style="fill:#f2f2f2;fill-opacity:1;fill-rule:nonzero;stroke:none"
       id="path20"
       inkscape:connector-curvature="0" /><text
       transform="matrix(1,0,0,-1,138.0669,159.627)"
       style="font-variant:normal;font-weight:bold;font-stretch:normal;font-size:35.73329926px;font-family:Montserrat;-inkscape-font-specification:Montserrat-Bold;writing-mode:lr-tb;fill:#3e5463;fill-opacity:1;fill-rule:nonzero;stroke:none"
       id="zh"><tspan
         x="0 34.125301 61.497009 87.760986 113.88203 135.96521 164.83771 194.99661"
         y="0"
         sodipodi:role="line"
         id="tspan22">MARATHON</tspan></text>
<text
       transform="matrix(1,0,0,-1,175.9126,142.8066)"
       style="font-variant:normal;font-weight:bold;font-stretch:normal;font-size:14.26019955px;font-family:Montserrat;-inkscape-font-specification:Montserrat-Bold;writing-mode:lr-tb;fill:#3e5463;fill-opacity:1;fill-rule:nonzero;stroke:none"
       id="zh"><tspan
         x="0 10.452726 21.974968 32.898281 46.516773 56.812637 61.489983 73.525589 85.047836 94.145844 105.66808 110.34543 120.7839"
         y="0"
         sodipodi:role="line"
         id="tspan26">CHAMPIONSHIPS</tspan></text>
<g
       id="g30"><g
         id="g32"><g
           id="g38"><g
             id="g40"><path
               d="m 232.635,341.568 c 0,0 -25.067,-29.246 -24.093,-28.804 v 0 c 4.756,2.158 28.193,19.753 30.738,20.829 v 0 c 2.303,0.973 18.75,-1.168 23.617,-1.177 v 0 c 4.857,-0.009 9.981,15.306 5.304,15.562 v 0 c -5.848,-0.355 -35.566,-6.41 -35.566,-6.41"
               style="fill:url(#linearGradient52);stroke:none"
               id="path54"
               inkscape:connector-curvature="0" /></g></g></g></g><g
       id="g56"><g
         id="g58"><g
           id="g64"><g
             id="g66"><path
               d="m 232.635,341.568 c 0,0 -25.067,-29.246 -24.093,-28.804 v 0 c 4.756,2.158 28.193,19.753 30.738,20.829 v 0 c 2.303,0.973 18.75,-1.168 23.617,-1.177 v 0 c 4.857,-0.009 9.981,15.306 5.304,15.562 v 0 c -5.848,-0.355 -35.566,-6.41 -35.566,-6.41"
               style="fill:url(#linearGradient78);stroke:none"
               id="path80"
               inkscape:connector-curvature="0" /></g></g></g></g><g
       id="g82"><g
         id="g84"
         clip-path="url(#clipPath88)"><g
           id="g90"><g
             id="g92" /><g
             id="g104"><g
               clip-path="url(#clipPath96)"
               id="g102"><g
                 transform="translate(262.8975,332.416)"
                 id="g100"><path
                   d="M 0,0 C 2.317,-0.004 4.692,3.481 6.038,7.154 5.976,7.217 5.94,7.25 5.94,7.25 l -30.837,0.334 -29,-27 c 0,0 0.002,-0.006 0.003,-0.008 5.636,2.936 27.806,19.556 30.277,20.601 C -21.315,2.15 -4.867,0.009 0,0"
                   style="fill:#cccccc;fill-opacity:1;fill-rule:evenodd;stroke:none"
                   id="path98"
                   inkscape:connector-curvature="0" /></g></g></g></g></g></g><g
       id="zh"><g
         id="g108"><g
           id="g114"><g
             id="g116"><path
               d="m 247.281,298.608 c -15.512,-11.731 -22.229,-9.605 -29.547,-7.48 v 0 c -6.822,1.981 -14.166,3.963 -29.642,-5.278 v 0 l 1.318,-5.153 c 2.834,2.262 6.232,4.582 11.746,5.993 v 0 c 3.698,0.946 9.127,-0.188 15.118,-1.323 v 0 c 6.062,-1.147 12.699,-2.295 18.694,-1.286 v 0 c 10.561,1.778 12.833,9.489 20.079,12.979 v 0 l 4.727,7.141 c -3.905,-0.674 -8.179,-2.331 -12.493,-5.593 m 13.671,0.084 c 4.518,0.499 8.597,-0.536 11.472,-1.569 v 0 c 2.617,-0.94 4.235,-1.882 4.276,-1.666 v 0 c 0.093,0.502 -0.126,5.659 -0.126,5.659 v 0 c -0.446,0.378 -1.233,0.867 -2.297,1.358 v 0 c -3.649,-0.378 -7.363,0.018 -10.956,0.905 v 0 z"
               style="fill:url(#linearGradient124);stroke:none"
               id="path126"
               inkscape:connector-curvature="0" /></g></g></g></g><g
       id="g128"><g
         id="g130"><g
           id="g136"><g
             id="g138"><path
               d="m 263.56,330.668 c 3.501,-6.529 2.656,-13.627 0.535,-19.643 v 0 c 1.587,-0.277 3.202,-0.413 4.888,-0.362 v 0 c 4.453,0.132 8.838,1.106 12.725,3.333 v 0 c 1.177,0.674 2.275,1.448 3.317,2.315 v 0 c 0.577,0.481 1.192,1.106 1.788,1.534 v 0 l 0.004,0.003 c 0.353,1.944 0.515,3.852 0.404,5.643 v 0 c -0.709,11.52 -16.394,24.458 -16.394,24.458 v 0 c 4.174,-5.738 -0.956,-15.841 -7.267,-17.281 m 16.106,-27.016 c -6.094,-2.103 -12.663,-1.491 -18.745,0.396 v 0 c -1.908,-3.44 -3.803,-5.96 -4.556,-6.952 v 0 c -3.739,-4.932 0.032,-11.106 4.364,-13.927 v 0 c 9.439,-6.152 29.856,-6.751 37.104,-6.534 v 0 c -20.097,-14.988 -23.871,-58.749 -23.845,-58.686 v 0 c 16.993,40.776 37.091,56.219 38.135,58.132 v 0 c 6.395,11.727 -31.425,24.252 -34.738,19.584 v 0 c 0,0 2.489,3.849 4.967,9.127 v 0 c -0.902,-0.454 -1.81,-0.838 -2.686,-1.14"
               style="fill:url(#linearGradient150);stroke:none"
               id="path152"
               inkscape:connector-curvature="0" /></g></g></g></g><g
       id="g154"><g
         id="g156"
         clip-path="url(#clipPath160)"><g
           id="g162"><g
             id="g164" /><g
             id="g180"><g
               clip-path="url(#clipPath168)"
               id="g178"><g
                 transform="translate(267.9062,302.541)"
                 id="g172"><path
                   d="m 0,0 c -2.363,0.273 -4.709,0.801 -6.985,1.507 -1.909,-3.44 -3.803,-5.96 -4.556,-6.951 -3.739,-4.933 0.032,-11.106 4.364,-13.929 9.439,-6.15 29.856,-6.751 37.104,-6.533 C 10.218,-40.605 6.208,-82.973 6.085,-84.542 l 0.009,0.001 c 0,0 9,29 15,40 6,11 16,20 16,20 0,0 -33,5 -38,10 C -3.57,-11.877 -2.26,-6.375 0,0"
                   style="fill:#cccccc;fill-opacity:1;fill-rule:nonzero;stroke:none"
                   id="path170"
                   inkscape:connector-curvature="0" /></g><g
                 transform="translate(263.5605,330.6685)"
                 id="g176"><path
                   d="m 0,0 c 3.5,-6.53 2.656,-13.627 0.534,-19.644 1.587,-0.276 3.202,-0.412 4.889,-0.362 0.672,0.02 1.342,0.067 2.009,0.126 1.167,3.123 2.269,6.258 3.007,9.212 C 12.432,-2.699 9.502,3.355 7.309,6.525 5.714,3.329 2.997,0.684 0,0"
                   style="fill:#cccccc;fill-opacity:1;fill-rule:nonzero;stroke:none"
                   id="path174"
                   inkscape:connector-curvature="0" /></g></g></g></g></g></g><g
       id="g182"><g
         id="g184"><g
           id="g190"><g
             id="g192"><path
               d="m 237.928,248.653 c -16.781,-7.575 -42.39,-50.93 -41.473,-49.624 v 0 c 5.408,7.705 39.7,33.605 45.991,39.7 v 0 c 6.031,5.841 28.729,36.049 30.55,38.102 v 0 c -1.334,-0.503 -13.375,3.251 -16.726,7.181 v 0 c -7.178,-11.639 -11.165,-23.72 -18.342,-35.359 m 35.068,28.178 c 0.058,0.023 0.096,0.053 0.112,0.092 v 0 c 0.005,0.012 0.005,0.019 10e-4,0.019 v 0 c -0.011,0 -0.049,-0.038 -0.113,-0.111"
               style="fill:url(#linearGradient204);stroke:none"
               id="path206"
               inkscape:connector-curvature="0" /></g></g></g></g><g
       id="g208"><g
         id="g210"><g
           id="g216"><g
             id="g218"><path
               d="m 303.718,334.3 c 0,0 -22.419,8.418 -26.673,10.19 v 0 c 0,0 10.368,-8.685 11.166,-16.482 v 0 c -0.089,-1.419 15.054,-3.761 18.066,-2.699 v 0 c 3.013,1.064 22.076,27.688 22.608,28.929 v 0 c 0.015,0.036 0.009,0.053 -0.017,0.053 v 0 c -0.895,-0.003 -25.15,-19.991 -25.15,-19.991"
               style="fill:url(#linearGradient230);stroke:none"
               id="path232"
               inkscape:connector-curvature="0" /></g></g></g></g><g
       id="g234"><g
         id="g236"><g
           id="g242"><g
             id="g244"><path
               d="m 267.245,358.328 c 0,-5.759 4.577,-10.457 10.191,-10.457 v 0 c 5.613,0 10.19,4.698 10.19,10.457 v 0 c 0,5.759 -4.577,10.456 -10.19,10.456 v 0 c -5.614,0 -10.191,-4.697 -10.191,-10.456"
               style="fill:url(#linearGradient256);stroke:none"
               id="path258"
               inkscape:connector-curvature="0" /></g></g></g></g><g
       id="g260"><g
         id="g262"
         clip-path="url(#clipPath266)"><g
           id="g268"><g
             id="g270" /><g
             id="g282"><g
               clip-path="url(#clipPath274)"
               id="g280"><g
                 transform="translate(277.4355,347.8711)"
                 id="g278"><path
                   d="m 0,0 c 5.613,0 10.191,4.697 10.191,10.457 0,5.759 -4.578,10.456 -10.191,10.456 -5.613,0 -10.19,-4.697 -10.19,-10.456 C -10.19,4.697 -5.613,0 0,0"
                   style="fill:#cccccc;fill-opacity:1;fill-rule:evenodd;stroke:none"
                   id="path276"
                   inkscape:connector-curvature="0" /></g></g></g></g></g></g><g
       id="g284"><g
         id="g286"><g
           id="g292"><g
             id="g294"><path
               d="m 270.161,365.632 c -0.583,-1.316 -0.916,-2.77 -0.916,-4.305 v 0 c 0,-5.759 4.577,-10.456 10.191,-10.456 v 0 c 2.846,0 5.422,1.211 7.274,3.152 v 0 c 0.583,1.315 0.916,2.77 0.916,4.305 v 0 c 0,5.759 -4.577,10.456 -10.19,10.456 v 0 c -2.846,0 -5.424,-1.211 -7.275,-3.152"
               style="fill:url(#linearGradient306);stroke:none"
               id="path308"
               inkscape:connector-curvature="0" /></g></g></g></g><g
       id="zh"><g
         id="g312"><g
           id="g318"><g
             id="g320"><path
               d="m 287.232,317.26 c -1.347,-0.968 -6.353,-6.963 -18.227,-7.317 v 0 c -5.549,-0.166 -10.073,1.604 -14.746,3.373 v 0 c -5.327,2.017 -10.849,4.034 -18.308,3.185 v 0 C 221.95,314.905 209.809,303.74 200.859,303.474 v 0 c -7.072,-0.21 -11.739,1.269 -15.771,2.747 v 0 c -8.837,3.243 -14.619,6.486 -35.981,-8.064 v 0 l 0.531,-5.317 c 0,0 15.493,14.453 30.376,9.75 v 0 c 24.145,-7.63 33.454,-2.842 41.616,1.946 v 0 c 8.311,4.875 15.433,9.75 35.812,1.519 v 0 c 19.236,-7.768 29.02,1.584 31.147,4.774 v 0 c 0.808,1.797 0.124,6.546 -1.041,6.545 v 0 c -0.101,0 -0.207,-0.036 -0.316,-0.114"
               style="fill:url(#linearGradient328);stroke:none"
               id="path330"
               inkscape:connector-curvature="0" /></g></g></g></g><g
       id="g332"><g
         id="g334"
         clip-path="url(#clipPath338)"><g
           id="g340"><g
             id="g342" /><g
             id="g354"><g
               clip-path="url(#clipPath346)"
               id="g352"><g
                 transform="translate(256.2695,284.0122)"
                 id="g350"><path
                   d="m 0,0 c -7.177,-11.639 -11.165,-23.72 -18.342,-35.359 -12.399,-5.597 -29.616,-30.726 -37.392,-42.942 6.739,8.375 19.368,23.612 26.464,29.289 10,8 15,11 15,11 L 7.224,-4.487 C 4.245,-3.213 1.384,-1.622 0,0"
                   style="fill:#cccccc;fill-opacity:1;fill-rule:nonzero;stroke:none"
                   id="path348"
                   inkscape:connector-curvature="0" /></g></g></g></g></g></g><g
       id="zh"><g
         id="g358"
         clip-path="url(#clipPath362)"><g
           id="g364"
           transform="translate(260.1045,26.4971)"><path
             d="m 0,0 c -0.433,-0.443 -0.804,-0.931 -1.108,-1.453 l -0.466,0.241 c -0.067,0.297 -0.349,0.502 -0.658,0.466 -0.331,-0.039 -0.569,-0.339 -0.53,-0.67 0.039,-0.331 0.339,-0.567 0.67,-0.528 0.066,0.007 0.127,0.025 0.184,0.051 l 0.451,-0.234 C -1.708,-2.681 -1.89,-3.266 -1.996,-3.87 l 0.746,-0.132 c 0.23,1.306 0.85,2.507 1.792,3.473 z"
             style="fill:#1d262d;fill-opacity:1;fill-rule:nonzero;stroke:none"
             id="path366"
             inkscape:connector-curvature="0" /></g><g
           id="g368"
           transform="translate(265.5918,28.7988)"><path
             d="m 0,0 c -0.171,0 -0.341,-0.006 -0.51,-0.017 l -0.073,0.626 c 0.187,0.15 0.296,0.389 0.266,0.645 C -0.363,1.646 -0.72,1.928 -1.113,1.882 -1.506,1.836 -1.787,1.479 -1.741,1.086 -1.711,0.832 -1.552,0.625 -1.336,0.522 l 0.073,-0.624 c -0.714,-0.116 -1.403,-0.332 -2.059,-0.645 l 0.327,-0.685 c 0.933,0.448 1.941,0.674 2.995,0.674 0.496,0 0.993,-0.053 1.475,-0.158 l 0.161,0.741 C 1.101,-0.059 0.551,0 0,0"
             style="fill:#1d262d;fill-opacity:1;fill-rule:nonzero;stroke:none"
             id="path370"
             inkscape:connector-curvature="0" /></g><g
           id="g372"
           transform="translate(272.1943,26.252)"><path
             d="M 0,0 C 0.331,0.04 0.566,0.341 0.525,0.672 0.485,1.003 0.184,1.238 -0.146,1.197 -0.456,1.159 -0.682,0.894 -0.677,0.589 L -1.093,0.226 c -0.418,0.43 -0.889,0.812 -1.408,1.139 L -2.904,0.724 c 1.133,-0.715 2.02,-1.727 2.563,-2.925 l 0.691,0.312 c -0.251,0.554 -0.568,1.072 -0.943,1.545 L -0.19,0.007 C -0.13,-0.005 -0.065,-0.009 0,0"
             style="fill:#1d262d;fill-opacity:1;fill-rule:nonzero;stroke:none"
             id="path374"
             inkscape:connector-curvature="0" /></g><g
           id="g376"
           transform="translate(265.0439,18.5908)"><path
             d="m 0,0 c -0.386,-0.023 -0.774,-0.035 -1.157,-0.035 -0.88,0 -1.733,0.06 -2.478,0.18 -0.39,0.061 -0.846,0.154 -1.27,0.292 1.046,-1.862 3.069,-3.125 5.387,-3.125 2.857,0 5.263,1.916 5.951,4.502 C 5.751,1.365 4.927,0.989 3.974,0.692 2.795,0.324 1.42,0.085 0,0"
             style="fill:#1d262d;fill-opacity:1;fill-rule:nonzero;stroke:none"
             id="path378"
             inkscape:connector-curvature="0" /></g><g
           id="g380"
           transform="translate(268.1699,21.6758)"><path
             d="M 0,0 C -0.75,0 -1.36,0.61 -1.36,1.36 -1.36,2.11 -0.75,2.721 0,2.721 0.75,2.721 1.36,2.11 1.36,1.36 1.36,0.61 0.75,0 0,0 m -4.737,-0.908 c -1.021,0 -1.85,0.83 -1.85,1.849 0,1.021 0.829,1.851 1.85,1.851 1.019,0 1.849,-0.83 1.849,-1.851 0,-1.019 -0.83,-1.849 -1.849,-1.849 m 2.159,6.515 c -3.353,0 -6.079,-2.667 -6.079,-5.944 0,-0.425 0.046,-0.849 0.136,-1.261 0.674,-0.482 2.706,-0.89 5.348,-0.731 2.879,0.174 5.297,0.958 6.672,2.159 C 3.493,0.024 3.479,0.22 3.454,0.411 3.073,3.373 0.48,5.607 -2.578,5.607"
             style="fill:#1d262d;fill-opacity:1;fill-rule:nonzero;stroke:none"
             id="path382"
             inkscape:connector-curvature="0" /></g><g
           id="g384"
           transform="translate(281.5957,25.416)"><path
             d="M 0,0 C -0.295,0.115 -0.806,0.309 -1.383,0.236 -1.934,0.168 -2.227,-0.104 -2.227,-0.77 v -0.866 h 2.228 v -1.717 h -2.228 v -5.455 h -1.931 v 5.455 h -1.34 v 1.717 h 1.34 v 0.889 c 0,1.68 0.895,2.782 2.568,2.782 0.643,0 1.157,-0.121 1.59,-0.307 z"
             style="fill:#1d262d;fill-opacity:1;fill-rule:nonzero;stroke:none"
             id="path386"
             inkscape:connector-curvature="0" /></g><g
           id="g388"
           transform="translate(286.2979,22.084)"><path
             d="m 0,0 c -0.177,0.029 -0.357,0.046 -0.526,0.046 -0.896,0 -1.51,-0.548 -1.51,-1.613 v -3.909 h -1.932 v 7.172 h 1.873 V 0.912 c 0.451,0.673 1.14,0.977 2.021,0.977 0.414,0 0.847,-0.127 1.094,-0.337 z"
             style="fill:#1d262d;fill-opacity:1;fill-rule:nonzero;stroke:none"
             id="path390"
             inkscape:connector-curvature="0" /></g><g
           id="g392"
           transform="translate(288.8506,20.8711)"><path
             d="M 0,0 H 3.175 C 2.998,0.918 2.442,1.437 1.613,1.437 0.703,1.437 0.17,0.889 0,0 m 5.114,-0.666 c 0,-0.222 -0.014,-0.488 -0.037,-0.651 h -5.084 c 0.207,-1.037 0.933,-1.488 1.843,-1.488 0.621,0 1.295,0.252 1.813,0.689 l 1.132,-1.243 c -0.814,-0.748 -1.85,-1.089 -3.056,-1.089 -2.199,0 -3.723,1.495 -3.723,3.753 0,2.257 1.48,3.797 3.626,3.797 2.065,0 3.479,-1.533 3.486,-3.768"
             style="fill:#1d262d;fill-opacity:1;fill-rule:nonzero;stroke:none"
             id="path394"
             inkscape:connector-curvature="0" /></g><g
           id="g396"
           transform="translate(296.5039,20.8711)"><path
             d="M 0,0 H 3.176 C 2.998,0.918 2.442,1.437 1.613,1.437 0.703,1.437 0.17,0.889 0,0 m 5.114,-0.666 c 0,-0.222 -0.014,-0.488 -0.037,-0.651 h -5.084 c 0.207,-1.037 0.932,-1.488 1.843,-1.488 0.621,0 1.295,0.252 1.813,0.689 l 1.132,-1.243 c -0.814,-0.748 -1.85,-1.089 -3.056,-1.089 -2.199,0 -3.723,1.495 -3.723,3.753 0,2.257 1.48,3.797 3.626,3.797 2.065,0 3.479,-1.533 3.486,-3.768"
             style="fill:#1d262d;fill-opacity:1;fill-rule:nonzero;stroke:none"
             id="path398"
             inkscape:connector-curvature="0" /></g><g
           id="g400"
           transform="translate(304.2871,20.1982)"><path
             d="m 0,0 c 0,-1.133 0.747,-1.977 1.843,-1.977 1.139,0 1.85,0.881 1.85,1.977 0,1.095 -0.711,1.976 -1.85,1.976 C 0.747,1.976 0,1.132 0,0 m 5.677,0 c 0,-2.154 -1.495,-3.775 -3.471,-3.775 -0.963,0 -1.644,0.378 -2.109,0.932 V -6.551 H -1.828 V 3.582 H 0.06 V 2.79 C 0.525,3.375 1.214,3.774 2.198,3.774 4.182,3.774 5.677,2.153 5.677,0"
             style="fill:#1d262d;fill-opacity:1;fill-rule:nonzero;stroke:none"
             id="path402"
             inkscape:connector-curvature="0" /></g><path
           d="m 312.809,16.608 h -1.932 v 7.172 h 1.932 z m 0.258,9.519 c 0,-0.696 -0.54,-1.23 -1.235,-1.23 -0.696,0 -1.229,0.534 -1.229,1.23 0,0.695 0.533,1.243 1.229,1.243 0.695,0 1.235,-0.548 1.235,-1.243"
           style="fill:#1d262d;fill-opacity:1;fill-rule:nonzero;stroke:none"
           id="path404"
           inkscape:connector-curvature="0" /><g
           id="g406"
           transform="translate(316.0322,21.2266)"><path
             d="M 0,0 2.701,2.554 H 5.07 L 1.591,-0.821 5.092,-4.618 H 2.716 L 0,-1.717 V -4.618 H -1.932 V 6.04 L 0,6.04 Z"
             style="fill:#1d262d;fill-opacity:1;fill-rule:nonzero;stroke:none"
             id="path408"
             inkscape:connector-curvature="0" /></g><g
           id="g410"
           transform="translate(184.4121,18.5918)"><path
             d="m 0,0 v 3.208 c -0.395,0.615 -1.245,1.143 -2.124,1.143 -1.42,0 -2.27,-1.172 -2.27,-2.74 0,-1.567 0.85,-2.724 2.27,-2.724 0.879,0 1.729,0.498 2.124,1.113 m 0,-1.919 v 1.056 c -0.527,-0.719 -1.391,-1.232 -2.387,-1.232 -1.846,0 -3.15,1.407 -3.15,3.706 0,2.256 1.289,3.721 3.15,3.721 0.952,0 1.816,-0.469 2.387,-1.245 v 3.765 h 1.099 v -9.771 z"
             style="fill:#1d262d;fill-opacity:1;fill-rule:nonzero;stroke:none"
             id="path412"
             inkscape:connector-curvature="0" /></g><g
           id="g414"
           transform="translate(190.4033,23.0156)"><path
             d="M 0,0 C -1.509,0 -2.256,-1.274 -2.314,-2.358 H 2.329 C 2.314,-1.304 1.611,0 0,0 m -3.472,-2.798 c 0,2.051 1.465,3.706 3.487,3.706 2.138,0 3.398,-1.67 3.398,-3.794 v -0.278 h -5.727 c 0.087,-1.333 1.025,-2.446 2.548,-2.446 0.806,0 1.626,0.323 2.183,0.893 L 2.944,-5.435 C 2.241,-6.138 1.289,-6.519 0.132,-6.519 c -2.095,0 -3.604,1.509 -3.604,3.721"
             style="fill:#1d262d;fill-opacity:1;fill-rule:nonzero;stroke:none"
             id="path416"
             inkscape:connector-curvature="0" /></g><g
           id="g418"
           transform="translate(194.6069,17.6104)"><path
             d="M 0,0 0.571,0.791 C 1.04,0.249 1.934,-0.22 2.9,-0.22 c 1.084,0 1.67,0.513 1.67,1.216 0,1.714 -4.38,0.659 -4.38,3.281 0,1.099 0.953,2.036 2.637,2.036 1.201,0 2.051,-0.454 2.622,-1.025 L 4.936,4.526 C 4.512,5.039 3.735,5.42 2.827,5.42 1.86,5.42 1.26,4.937 1.26,4.307 1.26,2.754 5.639,3.779 5.639,1.025 5.639,-0.161 4.687,-1.113 2.856,-1.113 1.699,-1.113 0.718,-0.762 0,0"
             style="fill:#1d262d;fill-opacity:1;fill-rule:nonzero;stroke:none"
             id="path420"
             inkscape:connector-curvature="0" /></g><path
           d="m 201.667,23.748 h 1.099 v -7.075 h -1.099 z m -0.19,1.743 c 0,0.41 0.337,0.747 0.732,0.747 0.41,0 0.747,-0.337 0.747,-0.747 0,-0.41 -0.337,-0.732 -0.747,-0.732 -0.395,0 -0.732,0.322 -0.732,0.732"
           style="fill:#1d262d;fill-opacity:1;fill-rule:nonzero;stroke:none"
           id="path422"
           inkscape:connector-curvature="0" /><g
           id="g424"
           transform="translate(209.7085,18.709)"><path
             d="m 0,0 v 3.091 c -0.381,0.615 -1.23,1.142 -2.109,1.142 -1.421,0 -2.27,-1.128 -2.27,-2.695 0,-1.553 0.849,-2.695 2.27,-2.695 0.879,0 1.728,0.542 2.109,1.157 m -5.126,-3.853 0.556,0.821 c 0.586,-0.702 1.289,-0.967 2.3,-0.967 1.172,0 2.27,0.571 2.27,2.124 v 1.012 c -0.512,-0.719 -1.376,-1.261 -2.373,-1.261 -1.845,0 -3.149,1.377 -3.149,3.662 0,2.271 1.289,3.677 3.149,3.677 0.952,0 1.802,-0.469 2.373,-1.245 v 1.069 h 1.099 v -6.87 c 0,-2.344 -1.641,-3.076 -3.369,-3.076 -1.202,0 -2.022,0.235 -2.856,1.054"
             style="fill:#1d262d;fill-opacity:1;fill-rule:nonzero;stroke:none"
             id="path426"
             inkscape:connector-curvature="0" /></g><g
           id="g428"
           transform="translate(217.4131,16.6729)"><path
             d="M 0,0 V 4.629 C 0,5.874 -0.629,6.27 -1.582,6.27 -2.446,6.27 -3.267,5.742 -3.676,5.171 V 0 h -1.099 v 7.075 h 1.099 V 6.05 c 0.498,0.586 1.464,1.201 2.519,1.201 1.479,0 2.256,-0.747 2.256,-2.285 L 1.099,0 Z"
             style="fill:#1d262d;fill-opacity:1;fill-rule:nonzero;stroke:none"
             id="path430"
             inkscape:connector-curvature="0" /></g><g
           id="g432"
           transform="translate(223.4043,23.0156)"><path
             d="M 0,0 C -1.509,0 -2.256,-1.274 -2.314,-2.358 H 2.329 C 2.314,-1.304 1.611,0 0,0 m -3.472,-2.798 c 0,2.051 1.465,3.706 3.487,3.706 2.138,0 3.398,-1.67 3.398,-3.794 v -0.278 h -5.727 c 0.087,-1.333 1.025,-2.446 2.548,-2.446 0.806,0 1.626,0.323 2.183,0.893 L 2.944,-5.435 C 2.241,-6.138 1.289,-6.519 0.132,-6.519 c -2.095,0 -3.604,1.509 -3.604,3.721"
             style="fill:#1d262d;fill-opacity:1;fill-rule:nonzero;stroke:none"
             id="path434"
             inkscape:connector-curvature="0" /></g><g
           id="g436"
           transform="translate(233.3501,18.5918)"><path
             d="m 0,0 v 3.208 c -0.396,0.615 -1.245,1.143 -2.124,1.143 -1.421,0 -2.271,-1.172 -2.271,-2.74 0,-1.567 0.85,-2.724 2.271,-2.724 0.879,0 1.728,0.498 2.124,1.113 m 0,-1.919 v 1.056 c -0.527,-0.719 -1.392,-1.232 -2.388,-1.232 -1.845,0 -3.149,1.407 -3.149,3.706 0,2.256 1.289,3.721 3.149,3.721 0.952,0 1.817,-0.469 2.388,-1.245 v 3.765 h 1.098 v -9.771 z"
             style="fill:#1d262d;fill-opacity:1;fill-rule:nonzero;stroke:none"
             id="path438"
             inkscape:connector-curvature="0" /></g><g
           id="g440"
           transform="translate(242.8999,17.4785)"><path
             d="M 0,0 C 1.436,0 2.285,1.157 2.285,2.725 2.285,4.292 1.436,5.464 0,5.464 -0.864,5.464 -1.729,4.937 -2.109,4.321 V 1.113 C -1.729,0.498 -0.864,0 0,0 m -3.208,-0.806 v 9.771 h 1.099 V 5.2 c 0.571,0.777 1.421,1.245 2.387,1.245 1.846,0 3.15,-1.465 3.15,-3.72 0,-2.3 -1.304,-3.706 -3.15,-3.706 -0.996,0 -1.86,0.512 -2.387,1.231 v -1.056 z"
             style="fill:#1d262d;fill-opacity:1;fill-rule:nonzero;stroke:none"
             id="path442"
             inkscape:connector-curvature="0" /></g><g
           id="g444"
           transform="translate(247.5283,14.9004)"><path
             d="m 0,0 c 0.161,-0.073 0.425,-0.117 0.601,-0.117 0.483,0 0.805,0.161 1.055,0.747 L 2.124,1.699 -0.835,8.848 H 0.352 L 2.71,3.047 5.054,8.848 H 6.255 L 2.71,0.337 C 2.285,-0.687 1.567,-1.084 0.63,-1.099 c -0.234,0 -0.601,0.044 -0.806,0.104 z"
             style="fill:#1d262d;fill-opacity:1;fill-rule:nonzero;stroke:none"
             id="path446"
             inkscape:connector-curvature="0" /></g></g></g></g></svg>